<?xml version="1.0" standalone="no"?>
<!DOCTYPE svg PUBLIC "-//W3C//DTD SVG 20010904//EN"
 "http://www.w3.org/TR/2001/REC-SVG-20010904/DTD/svg10.dtd">
<svg version="1.0" xmlns="http://www.w3.org/2000/svg"
 width="1250.000000pt" height="1250.000000pt" viewBox="0 0 1250.000000 1250.000000"
 preserveAspectRatio="xMidYMid meet">
<metadata>
Created by potrace 1.14, written by Peter Selinger 2001-2017
</metadata>
<g transform="translate(0.000000,1250.000000) scale(0.100000,-0.100000)"
fill="#000000" stroke="none">
<path d="M5435 9560 c-258 -4 -720 -13 -1025 -19 -536 -12 -557 -13 -600 -34
-34 -16 -51 -33 -67 -67 l-23 -44 0 -1976 c0 -1086 -3 -1985 -6 -1997 -9 -34
-31 -35 -92 -4 -310 156 -580 219 -892 208 -260 -9 -430 -52 -673 -171 -328
-160 -583 -433 -697 -744 -50 -138 -70 -260 -70 -435 0 -238 31 -384 119 -563
82 -168 194 -311 358 -457 328 -292 724 -432 1173 -414 309 13 595 105 850
274 287 191 481 465 563 793 21 85 21 91 24 1975 2 1040 5 1900 8 1912 11 48
37 54 312 69 391 21 950 53 1113 64 172 11 394 24 775 45 154 9 345 19 425 24
80 4 154 5 165 1 18 -7 76 -119 221 -426 36 -77 121 -168 168 -180 68 -17 114
40 140 171 31 160 40 274 40 530 1 361 -27 517 -132 753 -65 145 -109 206
-244 339 -219 216 -390 295 -753 348 -97 15 -543 36 -665 33 -25 -1 -256 -5
-515 -8z"/>
<path d="M8393 8293 c-32 -6 -71 -50 -83 -92 -6 -22 -10 -232 -10 -537 0 -479
-1 -503 -19 -525 l-19 -24 -1289 -5 c-1270 -5 -1288 -5 -1323 -25 -21 -12 -44
-39 -57 -65 -23 -44 -23 -45 -23 -560 0 -478 2 -518 19 -555 25 -54 118 -140
167 -154 27 -8 423 -11 1292 -11 l1252 0 0 -482 c0 -301 4 -497 10 -520 14
-49 101 -143 145 -158 63 -21 101 -6 270 105 109 72 331 214 475 305 41 26
139 88 218 139 338 217 432 277 517 331 50 31 155 99 235 150 80 51 186 119
235 150 124 79 450 289 565 365 52 34 125 81 162 104 97 61 128 100 128 160 0
56 -28 101 -103 167 -39 35 -383 264 -635 423 -40 25 -136 87 -212 136 -77 50
-197 126 -266 170 -69 44 -181 116 -249 160 -68 44 -236 152 -372 239 -136 88
-315 203 -398 256 -337 218 -497 321 -523 334 -33 17 -80 25 -109 19z"/>
</g>
</svg>
